<svg xmlns="http://www.w3.org/2000/svg" width="36" height="36" viewBox="0 0 36 36">
    <g fill="none" fill-rule="evenodd" opacity=".7">
        <path d="M0 0H36V36H0z"/>
        <path fill="#FFF" d="M25.326 16.595c.299 0 .5.198.5.489 0 .289-.201.482-.5.482h-2.268v1.538h2.145c.281 0 .47.181.47.458s-.189.452-.47.452h-2.145v1.609h2.254c.313 0 .514.193.514.487 0 .295-.201.484-.514.484h-2.64c-.532 0-.792-.251-.792-.76v-4.478c0-.505.26-.76.792-.76h2.654zm-15.377-.044c.374 0 .593.238.593.642v4.39h2.084c.311 0 .532.206.532.506 0 .302-.22.505-.532.505h-2.479c-.532 0-.79-.251-.79-.76v-4.641c0-.404.214-.642.592-.642zm10.432-.013c.339 0 .585.216.585.532 0 .118-.04.316-.092.48l-1.485 4.262c-.193.58-.47.826-.958.826-.497 0-.782-.251-.976-.826l-1.481-4.263c-.061-.18-.096-.352-.096-.474 0-.317.25-.537.593-.537.307 0 .5.184.624.59l1.314 4.134h.056l1.298-4.135c.122-.417.302-.59.618-.59zm-5.936.013c.373 0 .593.238.593.642v4.803c0 .404-.215.642-.589.642-.378 0-.597-.238-.597-.642v-4.803c0-.404.215-.642.593-.642zm12.273-5.77h-18c-1.553 0-2.812 1.26-2.812 2.813v11.25c0 1.553 1.259 2.812 2.812 2.812h18c1.554 0 2.813-1.259 2.813-2.812v-11.25c0-1.554-1.259-2.813-2.813-2.813zM13.946 6.447c.22-.22.575-.22.796 0l2.976 2.976 2.978-2.976c.22-.22.575-.22.796 0 .219.219.219.574 0 .795l-2.417 2.414h7.643c2.175 0 3.938 1.763 3.938 3.938v11.25c0 2.174-1.763 3.937-3.938 3.937H25.52l.541.814c.174.257.103.607-.155.78-.259.171-.607.102-.78-.157l-.958-1.437h-12.9l-.957 1.437c-.153.23-.445.311-.69.205l-.09-.049c-.258-.172-.328-.522-.156-.78l.54-.813H8.718c-2.174 0-3.937-1.763-3.937-3.937v-11.25c0-2.175 1.763-3.938 3.937-3.938h7.643l-2.415-2.414c-.195-.196-.217-.498-.065-.718l.065-.077z"/>
    </g>
</svg>
