<svg xmlns="http://www.w3.org/2000/svg" width="36" height="36" viewBox="0 0 36 36">
    <path fill="#FFF" fill-rule="evenodd" d="M25.752 17.519c-.223 0-.408.038-.555.113-.147.075-.265.168-.353.28-.089.111-.151.228-.188.353-.036.124-.056.236-.063.334h2.267c-.064-.354-.18-.621-.348-.805-.167-.183-.42-.275-.76-.275zm-5.513 0c-.223 0-.407.038-.555.113-.147.075-.265.168-.353.28-.09.111-.151.228-.187.353-.037.124-.057.236-.065.334h2.268c-.065-.354-.18-.621-.347-.805-.168-.183-.421-.275-.761-.275zm-2.862-1.05c.09 0 .193.015.304.048v1.296c-.066-.013-.144-.024-.236-.034-.091-.01-.18-.015-.264-.015-.256 0-.473.043-.648.128-.177.086-.32.201-.427.348-.108.148-.186.32-.231.516-.047.196-.069.409-.069.638v2.288h-1.394v-5.076h1.325v.942h.019c.066-.157.154-.303.266-.437.11-.133.238-.249.383-.343.144-.095.297-.17.461-.221.164-.052.334-.079.511-.079zm-3.59-1.797v1.296h-3.386v1.62h2.936v1.197H10.4v2.897H8.86v-7.01h4.928zm12.003 1.796c.433 0 .809.084 1.13.25.32.168.584.392.79.673.207.281.355.603.447.962.091.36.124.737.099 1.13h-3.663c.019.451.134.779.344.981.209.203.51.305.902.305.282 0 .524-.072.728-.211.202-.14.328-.29.373-.447h1.227c-.196.609-.498 1.043-.904 1.306-.405.261-.896.392-1.473.392-.399 0-.758-.063-1.08-.191-.32-.128-.592-.31-.815-.545-.22-.234-.394-.517-.515-.844-.12-.328-.18-.688-.18-1.08 0-.38.062-.733.185-1.06.125-.328.301-.61.53-.85.23-.238.503-.427.82-.565.319-.137.67-.206 1.055-.206zm-5.512 0c.432 0 .808.084 1.13.25.32.168.584.392.79.673.205.281.354.603.446.962.091.36.124.737.099 1.13h-3.664c.021.451.135.779.345.981.21.203.51.305.902.305.282 0 .524-.072.728-.211.202-.14.326-.29.373-.447h1.227c-.197.609-.498 1.043-.904 1.306-.405.261-.896.392-1.472.392-.4 0-.76-.063-1.08-.191-.321-.128-.592-.31-.815-.545-.223-.234-.395-.517-.515-.844-.122-.328-.182-.688-.182-1.08 0-.38.062-.733.187-1.06.124-.328.3-.61.53-.85.228-.238.502-.427.82-.565.316-.137.669-.206 1.055-.206zM18 5.728C11.222 5.727 5.728 11.221 5.728 18c0 6.778 5.494 12.273 12.272 12.273 6.777 0 12.273-5.495 12.273-12.273S24.777 5.727 18 5.727zM18 4.5c7.456 0 13.5 6.044 13.5 13.5S25.456 31.5 18 31.5 4.5 25.456 4.5 18 10.544 4.5 18 4.5z" opacity=".7"/>
</svg>
