<svg xmlns="http://www.w3.org/2000/svg" width="36" height="36" viewBox="0 0 36 36">
    <path fill="#FFF" fill-rule="evenodd" d="M27.986 6.573l-12.5 2.188v3.214l12.5-2.19V6.572zM24.875 21.12c-1.726 0-3.125 1.348-3.125 3.01 0 1.662 1.399 3.009 3.125 3.009S28 25.792 28 24.129l-.003-.126-.01-.095.002-.036c-.137-1.542-1.479-2.752-3.114-2.752zm-13.75 2.408C9.399 23.528 8 24.876 8 26.537c0 1.662 1.399 3.01 3.125 3.01s3.125-1.348 3.125-3.01l-.002-.123-.012-.099.002-.037c-.137-1.54-1.478-2.75-3.113-2.75zM28.499 5.26c.385-.067.737.216.737.592l.003 17.972c.007.1.011.203.011.305 0 2.328-1.96 4.214-4.375 4.214-2.416 0-4.375-1.886-4.375-4.214 0-2.325 1.959-4.213 4.375-4.213 1.218 0 2.319.48 3.113 1.253l-.002-10.162-12.5 2.191.002 13.033.005.076.007.23c0 2.328-1.959 4.213-4.375 4.213S6.75 28.865 6.75 26.537c0-2.326 1.959-4.213 4.375-4.213 1.217 0 2.32.48 3.113 1.253l-.002-15.318c0-.29.216-.54.514-.592L28.499 5.26z" opacity=".7"/>
</svg>
