<svg xmlns="http://www.w3.org/2000/svg" width="36" height="36" viewBox="0 0 36 36">
    <path fill="#FFF" fill-rule="evenodd" d="M16.936 17.267v5.115l3.437-2.556-3.437-2.559zm0-1.255c.26 0 .512.084.722.24l3.436 2.558c.549.408.67 1.193.272 1.754-.076.105-.167.2-.272.276l-3.436 2.557c-.547.408-1.316.284-1.714-.276-.153-.215-.235-.474-.235-.739v-5.115c0-.693.55-1.255 1.227-1.255zm11.046-5.644H8.345c-1.354 0-2.454 1.125-2.454 2.512v13.814c0 1.387 1.1 2.511 2.454 2.511h19.637c1.355 0 2.454-1.124 2.454-2.511V12.88c0-1.387-1.1-2.512-2.454-2.512zM14.047 5.529c.24-.245.629-.245.87 0l3.247 3.323L21.41 5.53c.24-.245.628-.245.869 0 .24.245.24.643 0 .888l-2.636 2.695h8.338c2.033 0 3.682 1.688 3.682 3.768v13.814c0 2.08-1.649 3.767-3.682 3.767h-2.814l.794.813c.24.244.24.643 0 .887-.24.245-.629.245-.87 0l-1.66-1.7H12.894l-1.66 1.7c-.213.219-.543.243-.783.073l-.085-.073c-.24-.244-.24-.643 0-.887l.792-.813H8.345c-2.033 0-3.681-1.687-3.681-3.767V12.88c0-2.08 1.648-3.768 3.681-3.768h8.337l-2.635-2.695c-.212-.217-.235-.556-.07-.801l.07-.087z" opacity=".7"/>
</svg>
