<svg xmlns="http://www.w3.org/2000/svg" width="36" height="36" viewBox="0 0 36 36">
    <path fill="#FFF" fill-rule="evenodd" d="M13.358 19.793c.648 0 1.174.526 1.174 1.174 0 .65-.526 1.174-1.174 1.174-.648 0-1.174-.524-1.174-1.174 0-.648.526-1.174 1.174-1.174zm9.392 0c.648 0 1.173.526 1.173 1.174 0 .65-.525 1.174-1.173 1.174-.65 0-1.174-.524-1.174-1.174 0-.648.524-1.174 1.174-1.174zm5.876-1.124c-.003.055-.006.117-.007.185v.002c-.003.243.007.582.027 1.109.019.455.026.703.03.992V22.037c-.003.49-.003.685 0 .918 0 .111.003.21.006.297.882-.231 1.437-1.077 1.437-2.285 0-1.233-.58-2.09-1.493-2.298zm-21.173.001c-.91.213-1.486 1.066-1.486 2.297 0 1.208.557 2.054 1.437 2.285.004-.086.007-.186.008-.297.003-.32.003-.598.002-1.284l-.002-.153v-.681c.003-.258.009-.513.025-.936.023-.631.03-.986.016-1.231zm13.168 4.186c.254-.2.624-.16.827.093.2.252.16.622-.093.825-1.075.86-2.18 1.302-3.301 1.302-1.122 0-2.226-.441-3.302-1.302-.253-.203-.294-.573-.092-.825.203-.254.573-.294.825-.093.88.706 1.734 1.046 2.569 1.046s1.687-.34 2.567-1.046zM17.414 7.484c-4.185.18-7.016 2.139-8.234 5.648-.43 1.242-.519 2.387-.517 5.219l-.002.645c0 .176 0 .382-.003.674-.027 3.74.14 5.162.982 6.567 1.253 2.088 3.959 2.948 8.414 2.948 4.445 0 7.13-.857 8.385-2.948.858-1.43 1.03-2.882 1.01-6.689l-.003-.486v-.185-.885c-.008-2.569-.109-3.672-.52-4.86C25.801 9.88 23.291 7.96 19.6 7.553c.142.126.318.28.386.336 1.347 1.151 1.863 2.427 1.863 4.023 0 1.711-1.019 2.935-2.935 2.935-1.923 0-2.866-1.1-2.593-3.019l.034-.127c.426-1.11 1.214-1.718 2.286-1.718.324 0 .587.263.587.587 0 .324-.263.587-.587.587-.541 0-.906.27-1.166.905-.149 1.163.256 1.61 1.44 1.61 1.216 0 1.76-.654 1.76-1.76 0-1.27-.382-2.217-1.452-3.13-.116-.098-.492-.43-.577-.501-.092-.079-.173-.143-.256-.206-.28-.21-.612-.41-1.13-.67l.154.079zm-.032-1.174c.077-.018.157-.021.235-.008l.054-.001.383-.005c5.017 0 8.534 2.269 9.982 6.452.499 1.438.571 3.037.582 4.726 1.677.222 2.675 1.702 2.675 3.493 0 1.892-1.113 3.436-2.964 3.519-.175.844-.45 1.633-.884 2.356-1.718 2.864-5.383 3.517-9.391 3.517s-7.701-.652-9.42-3.517c-.434-.723-.706-1.514-.878-2.356-1.85-.084-2.963-1.627-2.963-3.519 0-1.8 1.008-3.283 2.697-3.496.01-1.689.082-3.284.58-4.723 1.376-3.966 4.612-6.213 9.224-6.433l.088-.005z" opacity=".7"/>
</svg>
