<svg xmlns="http://www.w3.org/2000/svg" width="36" height="36" viewBox="0 0 36 36">
    <path fill="#FFF" fill-rule="evenodd" d="M17.885 14.406c.72 0 1.303.57 1.303 1.272 0 3.348-1.37 5.3-4.582 6.525-.156.06-.316.088-.474.088-.521 0-1.013-.307-1.215-.81-.261-.654.07-1.392.74-1.648 2.214-.844 2.925-1.854 2.925-4.155 0-.703.583-1.272 1.303-1.272zm2.716 5.403c.742 0 1.343.606 1.343 1.351 0 .747-.6 1.352-1.343 1.352-.742 0-1.344-.605-1.344-1.352 0-.745.601-1.35 1.344-1.35zm7.217-10.4H8.182c-1.356 0-2.455 1.1-2.455 2.455v13.5c0 1.355 1.1 2.454 2.455 2.454h19.636c1.355 0 2.455-1.099 2.455-2.454v-13.5c0-1.356-1.1-2.455-2.455-2.455zM13.884 4.68c.24-.239.628-.239.868 0L18 7.929l3.248-3.248c.24-.24.628-.24.867 0 .24.24.24.628 0 .867L19.48 8.182h8.338c2.033 0 3.682 1.648 3.682 3.682v13.5c0 2.033-1.649 3.682-3.682 3.682h-2.814l.793.793c.24.24.24.628 0 .868s-.628.24-.867 0l-1.661-1.661H12.73l-1.66 1.66c-.213.214-.544.237-.783.072l-.085-.071c-.24-.24-.24-.628 0-.868l.793-.793H8.182c-2.034 0-3.682-1.649-3.682-3.682v-13.5c0-2.034 1.648-3.682 3.682-3.682h8.337l-2.635-2.635c-.213-.212-.236-.543-.071-.782l.071-.085z" opacity=".7"/>
</svg>
