<svg xmlns="http://www.w3.org/2000/svg" width="36" height="36" viewBox="0 0 36 36">
    <path fill="#FFF" fill-rule="evenodd" d="M18 3.75c7.87 0 14.25 6.38 14.25 14.25S25.87 32.25 18 32.25 3.75 25.87 3.75 18 10.13 3.75 18 3.75zm0 1.5C10.958 5.25 5.25 10.958 5.25 18S10.958 30.75 18 30.75 30.75 25.042 30.75 18 25.042 5.25 18 5.25zm3.056 7.19c1.074 0 1.927.4 2.556 1.2.63.801.945 1.873.945 3.216v.498l-.004.335c-.048 1.76-.481 3.116-1.3 4.067-.869 1.01-2.165 1.523-3.889 1.538h-.212v-1.472h.256l.258-.009c.925-.05 1.645-.3 2.16-.75.56-.49.876-1.248.944-2.273-.596.63-1.291.944-2.087.944-.938 0-1.685-.328-2.241-.985-.557-.656-.835-1.52-.835-2.589 0-.703.141-1.34.424-1.911.284-.572.686-1.016 1.209-1.333.522-.318 1.128-.477 1.816-.477zm-5.688.11v10.7h-1.773v-8.562l-2.615.894V14.08l4.16-1.53h.228zm5.68 1.325c-.512 0-.92.211-1.226.634-.305.422-.458.955-.458 1.6 0 .669.154 1.208.462 1.619.307.41.718.615 1.23.615.357 0 .691-.103 1.004-.308.312-.205.554-.488.725-.85v-.695l-.006-.257c-.032-.668-.191-1.215-.478-1.64-.322-.479-.74-.718-1.252-.718z" opacity=".7"/>
</svg>
