<svg xmlns="http://www.w3.org/2000/svg" width="36" height="36" viewBox="0 0 36 36">
    <path fill="#FFF" fill-rule="evenodd" d="M25.54 17.041c1.42 0 2.572 1.192 2.572 2.662 0 5.882-4.605 9.681-10.286 9.681-5.681 0-10.286-3.799-10.286-9.681 0-1.47 1.152-2.662 2.572-2.662 1.42 0 2.571 1.192 2.571 2.662 0 2.94 2.303 4.145 5.143 4.145s5.143-1.204 5.143-4.145c0-1.47 1.152-2.662 2.571-2.662zm0 1.143c-.78 0-1.428.672-1.428 1.519 0 3.46-2.631 5.288-6.286 5.288s-6.286-1.829-6.286-5.288c0-.847-.648-1.519-1.428-1.519-.781 0-1.429.672-1.429 1.519 0 5.039 3.866 8.538 9.143 8.538 5.278 0 9.143-3.5 9.143-8.538 0-.847-.648-1.519-1.429-1.519zm.104 1.144c.32 0 .58.256.58.571 0 .367-.028.733-.08 1.092-.522 3.577-4.284 6.27-8.315 6.27-4.033 0-7.803-2.696-8.322-6.276-.053-.356-.078-.72-.078-1.086 0-.315.258-.57.578-.57.32 0 .58.255.58.57 0 .311.023.621.066.925.43 2.97 3.681 5.294 7.176 5.294 3.493 0 6.737-2.32 7.17-5.29.044-.306.065-.617.065-.929 0-.315.261-.57.58-.57zm-7.815-5.713c1.894 0 3.429 1.535 3.429 3.429 0 1.893-1.535 3.428-3.429 3.428-1.892 0-3.428-1.535-3.428-3.428 0-1.894 1.536-3.429 3.428-3.429zm0 1.143c-1.263 0-2.285 1.023-2.285 2.286 0 1.261 1.022 2.285 2.285 2.285 1.263 0 2.286-1.024 2.286-2.285 0-1.263-1.023-2.286-2.286-2.286zm6.854-9.145c2.525 0 4.571 2.047 4.571 4.571 0 2.525-2.046 4.572-4.571 4.572s-4.571-2.047-4.571-4.572c0-2.524 2.046-4.571 4.571-4.571zm-13.714 0c2.524 0 4.571 2.047 4.571 4.571 0 2.525-2.047 4.572-4.571 4.572-2.525 0-4.572-2.047-4.572-4.572 0-2.524 2.047-4.571 4.572-4.571zm13.714 1.143c-1.894 0-3.429 1.534-3.429 3.428s1.535 3.429 3.429 3.429 3.429-1.535 3.429-3.429-1.535-3.428-3.429-3.428zm-13.714 0c-1.894 0-3.429 1.534-3.429 3.428s1.535 3.429 3.429 3.429c1.893 0 3.428-1.535 3.428-3.429s-1.535-3.428-3.428-3.428zM24.683 9.04c.632 0 1.143.512 1.143 1.143s-.511 1.143-1.143 1.143c-.63 0-1.143-.512-1.143-1.143 0-.63.512-1.143 1.143-1.143zm-13.714 0c.632 0 1.143.512 1.143 1.143s-.511 1.143-1.143 1.143c-.631 0-1.143-.512-1.143-1.143 0-.63.512-1.143 1.143-1.143z" opacity=".7"/>
</svg>
