<svg xmlns="http://www.w3.org/2000/svg" width="36" height="36" viewBox="0 0 36 36">
    <path fill="#FFF" fill-rule="evenodd" d="M17.707 9.326c-.974 0-1.761.788-1.761 1.761 0 .973.787 1.76 1.76 1.76.974 0 1.761-.787 1.761-1.76s-.787-1.76-1.76-1.76zm0-1.174c1.62 0 2.934 1.314 2.934 2.935s-1.313 2.935-2.934 2.935c-1.622 0-2.935-1.314-2.935-2.935s1.313-2.935 2.935-2.935zm-6.155 6.127c-.925-.3-1.918.206-2.219 1.13-.3.925.205 1.918 1.13 2.219.926.302 1.919-.205 2.22-1.13.3-.926-.206-1.919-1.131-2.22zm14.528 1.13c-.3-.924-1.295-1.43-2.219-1.13-.925.3-1.432 1.293-1.131 2.219.301.925 1.295 1.432 2.22 1.13.925-.3 1.43-1.294 1.13-2.219zm-17.863-.361c.5-1.543 2.156-2.386 3.697-1.886 1.542.502 2.386 2.157 1.885 3.698-.5 1.542-2.157 2.386-3.698 1.884-1.542-.5-2.386-2.155-1.884-3.696zm15.282-1.886c1.541-.5 3.196.343 3.697 1.886.502 1.541-.342 3.196-1.884 3.696-1.541.502-3.196-.342-3.698-1.884-.5-1.541.343-3.196 1.885-3.698zm-5.792 3.795c.648 0 1.173.525 1.173 1.173 0 .65-.525 1.174-1.173 1.174s-1.174-.524-1.174-1.174c0-.648.526-1.173 1.174-1.173zm-3.105 5.448c-.787-.573-1.888-.398-2.46.39-.572.786-.398 1.887.39 2.458.786.572 1.888.398 2.46-.39.571-.787.396-1.887-.39-2.458zm8.669.39c-.572-.788-1.673-.963-2.46-.39-.786.571-.96 1.671-.39 2.458.572.788 1.674.962 2.46.39.787-.571.963-1.672.39-2.459zm-12.079-.69c.953-1.312 2.789-1.603 4.1-.65 1.311.953 1.602 2.788.649 4.098-.953 1.311-2.788 1.602-4.1.65-1.31-.953-1.602-2.788-.649-4.099zm8.93-.65c1.31-.953 3.145-.662 4.099.65.952 1.31.662 3.145-.65 4.098-1.31.952-3.147.661-4.099-.65-.953-1.31-.662-3.145.65-4.098zM17.707 6.391c-6.484 0-11.74 5.256-11.74 11.74 0 6.482 5.256 11.739 11.74 11.739 6.482 0 11.739-5.257 11.739-11.74 0-6.483-5.257-11.739-11.74-11.739zm0-1.174C24.838 5.217 30.62 11 30.62 18.13c0 5.21-3.085 9.7-7.528 11.74h5.767c.324 0 .587.263.587.587 0 .324-.263.586-.587.586H18.293l-.102-.009c-.16.006-.322.01-.484.01-7.132 0-12.914-5.782-12.914-12.914 0-7.131 5.782-12.913 12.914-12.913z" opacity=".7"/>
</svg>
