<svg xmlns="http://www.w3.org/2000/svg" width="36" height="36" viewBox="0 0 36 36">
    <path fill="#FFF" fill-rule="evenodd" d="M26.369 20.781c-2.817 2.817-5.432 5.23-7.843 7.24-2.572 1.534-5.599 1.242-7.7-.597-2.416-2.115-2.988-5.92-.541-8.857.571-.568 1.262-1.281 2.224-2.291.186-.194 2-2.104 2.55-2.68.228-.24.445-.465.654-.682 2.39-2.481 4.09-4.128 5.4-5.177 1.375-.913 3.369-.6 4.67.582 1.759 1.759 2.036 3.847.529 5.858-2.94 3.427-6.805 7.176-8.371 8.37-1.019.776-2.028.867-2.842.053-.584-.583-.584-1.277.077-2.267l5.987-5.97c.236-.237.236-.622 0-.858-.237-.237-.621-.237-.858 0l-6.063 6.063c-1.033 1.528-1.033 2.856 0 3.89 1.31 1.31 2.982 1.159 4.434.053 1.64-1.248 5.565-5.057 8.582-8.576 1.916-2.552 1.547-5.308-.638-7.494-1.706-1.552-4.305-1.96-6.222-.682-1.407 1.122-3.133 2.796-5.558 5.314l-.657.686c-.552.576-2.366 2.487-2.55 2.68-.958 1.003-1.643 1.711-2.242 2.31-2.932 3.515-2.248 8.062.636 10.586 2.495 2.184 6.096 2.533 9.2.67 2.517-2.087 5.157-4.524 8-7.367.236-.236.236-.62 0-.857-.237-.236-.622-.236-.858 0z" opacity=".7"/>
</svg>
